<svg xmlns="http://www.w3.org/2000/svg" viewBox="0 0 32 32">
  <rect width="32" height="32" rx="7" fill="#FBF6EA"/>
  <g transform="translate(7.866 1) scale(0.05282) translate(-196 -345)">
    <g class="parte" data-parte="corpo">
    <g data-parte="papel" fill="#FBF6EA" transform="translate(0.000000,950.000000) scale(0.100000,-0.100000)">
      <path d="M4397 5982 c-3 -4 1 -54 9 -112 8 -58 13 -143 12 -190 -1 -52 3 -94
10 -107 7 -12 12 -50 12 -85 0 -35 5 -69 11 -75 7 -7 12 -65 13 -149 1 -77 6
-160 10 -186 6 -35 4 -57 -8 -88 -9 -22 -16 -52 -16 -67 0 -27 -24 -72 -95
-183 -47 -72 -158 -183 -220 -220 -22 -13 -62 -42 -90 -64 -27 -21 -72 -49
-100 -61 -27 -13 -73 -36 -102 -53 -29 -17 -87 -47 -128 -66 l-77 -35 -21 23
c-12 13 -47 58 -77 101 -30 43 -119 142 -196 221 -98 99 -143 152 -147 172 -3
16 -9 41 -13 56 l-6 26 108 0 c60 0 114 4 120 8 6 4 30 37 54 75 23 37 52 73
64 79 13 7 80 12 181 13 88 0 167 5 175 10 8 5 58 13 110 17 126 9 195 21 253
44 57 22 60 41 10 49 -21 4 -54 13 -73 21 -31 13 -99 28 -185 40 -16 3 -52 11
-80 19 -27 7 -70 19 -95 25 -100 26 -127 33 -180 51 -173 57 -182 64 -201 134
-6 22 -23 54 -38 71 -14 18 -39 50 -55 73 -30 42 -151 120 -216 139 -100 30
-121 34 -161 29 -117 -14 -183 -43 -272 -121 -63 -55 -110 -117 -131 -175 -55
-145 -66 -180 -66 -213 0 -20 -5 -49 -10 -64 -6 -14 -13 -66 -17 -114 -5 -83
-5 -89 16 -101 27 -17 27 -26 -1 -49 -22 -17 -22 -21 -11 -86 6 -38 9 -81 6
-95 -2 -15 2 -39 10 -55 11 -22 14 -60 12 -159 -4 -171 -3 -168 -120 -445 -54
-128 -63 -153 -84 -234 -4 -18 -12 -39 -15 -45 -4 -6 -10 -63 -13 -126 l-5
-115 41 -76 c30 -55 41 -87 41 -119 0 -24 5 -56 10 -71 14 -35 0 -49 -43 -46
-21 2 -38 -3 -47 -12 -23 -29 -63 -547 -48 -640 5 -33 8 -85 8 -115 -1 -31 1
-119 4 -196 7 -136 8 -142 40 -195 72 -119 74 -135 59 -427 -8 -139 -9 -142
-37 -172 -20 -21 -39 -31 -59 -31 -15 0 -37 -5 -47 -10 -11 -6 -52 -12 -92
-13 l-73 -2 2 -53 c4 -97 48 -139 118 -113 19 7 103 11 219 11 203 0 214 -3
182 -53 -9 -13 -28 -53 -42 -88 -23 -57 -27 -86 -36 -263 -7 -144 -7 -210 1
-236 6 -21 11 -64 11 -98 0 -43 5 -66 18 -83 18 -22 21 -22 93 -11 41 6 118
13 172 16 107 5 118 10 148 67 15 31 19 59 19 144 0 59 -5 115 -10 125 -14 27
-1 158 18 176 9 9 21 12 31 8 9 -4 48 -11 86 -15 39 -4 87 -12 109 -19 21 -6
49 -9 61 -6 13 3 36 1 52 -6 15 -6 64 -15 108 -19 44 -5 103 -11 131 -15 40
-5 59 -2 90 14 67 35 154 144 154 194 0 11 -15 35 -34 54 -33 33 -36 34 -117
35 -46 0 -122 4 -168 8 -73 6 -86 10 -106 33 -51 59 -5 181 126 333 33 39 72
93 87 122 15 28 44 77 65 107 51 75 229 434 258 521 19 59 23 90 22 190 l0
121 36 17 c68 34 168 92 199 117 17 14 51 41 76 60 25 19 71 66 103 104 32 38
76 90 98 117 105 126 119 148 227 364 75 149 120 259 138 340 10 47 52 191 74
255 25 74 38 146 30 174 -4 16 -2 26 5 26 6 0 11 19 11 45 l0 45 -39 0 c-41 0
-51 -11 -51 -56 0 -19 -5 -24 -25 -24 -21 0 -25 -5 -25 -29 0 -16 -7 -35 -17
-42 -9 -8 -23 -30 -31 -49 -8 -19 -23 -46 -34 -60 -10 -14 -60 -88 -110 -165
-50 -77 -103 -154 -117 -171 -14 -17 -43 -56 -65 -86 -50 -71 -271 -281 -353
-335 -81 -53 -148 -80 -165 -65 -21 17 -37 89 -46 207 -10 126 -13 119 78 178
103 67 152 102 197 140 24 20 57 44 71 51 27 14 160 151 215 219 70 89 149
222 230 389 32 64 69 131 83 147 24 29 27 30 52 17 42 -22 80 -71 84 -108 2
-27 8 -34 28 -36 33 -5 50 -20 50 -46 0 -17 8 -13 48 27 l47 48 -37 34 c-21
19 -44 48 -53 65 -9 16 -33 41 -54 54 -21 14 -48 41 -60 60 -21 34 -22 43 -17
213 4 98 9 237 12 308 4 85 1 153 -7 196 -10 59 -10 70 5 90 14 20 16 56 16
241 l0 218 -39 0 c-35 0 -39 -3 -45 -31 -3 -17 -6 -68 -6 -113 0 -90 -8 -106
-52 -106 -22 0 -33 8 -46 31 -16 30 -89 146 -125 199 -10 14 -28 42 -42 63
-25 36 -39 45 -48 29z"/>
    </g>
    <g class="parte" data-parte="gelo">
      <g transform="translate(0.000000,950.000000) scale(0.100000,-0.100000)" fill="#2E302C">
        <path d="M2575 1010 c-3 -5 -28 -10 -54 -10 l-48 0 -7 -177 c-5 -119 -4 -187
3 -206 6 -16 11 -57 11 -92 0 -46 5 -69 18 -86 18 -22 21 -22 93 -11 41 6 118
13 172 16 108 5 118 10 148 69 18 34 20 52 14 155 -3 64 -5 144 -5 177 -1 59
-1 61 -57 118 l-57 57 -113 0 c-64 0 -114 -4 -118 -10z"/>
      </g>
    </g>
    <g class="parte" data-parte="nadadeira-tras-ponta">
      <g transform="translate(0.000000,950.000000) scale(0.100000,-0.100000)" fill="#2E302C">
        <path d="M3720 2740 c-8 -6 -34 -15 -57 -21 l-43 -11 0 -88 0 -88 38 9 c93 23
101 23 106 -2 15 -71 12 -105 -10 -151 -13 -26 -24 -54 -24 -62 0 -15 -28 -81
-86 -201 -13 -27 -30 -68 -38 -90 -7 -22 -27 -62 -44 -90 -17 -27 -52 -88 -78
-135 -26 -47 -64 -107 -84 -135 -20 -27 -57 -86 -83 -130 l-46 -79 41 -28 41
-27 26 39 c14 21 54 72 87 113 54 64 59 75 45 85 -14 9 -13 11 6 11 16 1 29
12 40 35 10 19 35 60 56 90 52 76 230 436 255 516 27 86 35 157 26 241 -6 62
-9 69 -25 64 -17 -6 -19 0 -19 69 l0 76 -57 0 c-32 0 -65 -5 -73 -10z"/>
      </g>
    </g>
    <g class="parte" data-parte="pe">
      <g transform="translate(0.000000,950.000000) scale(0.100000,-0.100000)" fill="#2E302C">
        <path d="M2330 1630 c0 -119 0 -119 -31 -155 -22 -25 -39 -35 -61 -35 -16 0
-38 -5 -48 -10 -11 -6 -52 -12 -92 -13 l-73 -2 2 -53 c4 -97 48 -139 118 -113
19 7 103 11 219 11 207 0 212 -2 177 -61 -21 -36 -55 -125 -65 -171 -6 -28 -6
-28 43 -28 27 0 53 5 56 10 4 6 54 10 118 10 l111 0 57 -56 c55 -54 57 -55 63
-31 7 30 30 41 56 27 10 -6 40 -10 65 -10 26 0 72 -7 102 -16 30 -9 65 -13 78
-10 13 3 36 1 52 -6 15 -6 64 -15 108 -19 44 -5 103 -11 131 -15 40 -5 59 -2
90 14 67 35 154 144 154 194 0 11 -15 35 -34 54 -33 33 -36 34 -117 35 -46 0
-122 4 -168 8 -73 6 -86 10 -106 33 -19 22 -22 34 -17 79 6 66 52 148 153 269
l71 85 -67 3 c-38 2 -74 1 -81 -2 -7 -2 -36 -33 -64 -67 -96 -116 -184 -167
-266 -154 -38 5 -54 15 -95 58 -28 29 -62 78 -76 110 -14 31 -29 57 -32 57 -4
0 -38 -32 -76 -70 l-70 -70 -115 115 -115 115 -78 0 -77 0 0 -120z m700 -280
c14 -10 22 -22 18 -25 -11 -12 -63 11 -66 28 -5 22 17 21 48 -3z"/>
      </g>
    </g>
    <g class="parte" data-parte="perna-frente">
      <g transform="translate(0.000000,950.000000) scale(0.100000,-0.100000)" fill="#2E302C">
        <path d="M2392 2867 c-34 -34 -62 -68 -62 -75 0 -6 -6 -12 -13 -12 -8 0 -24
-11 -37 -25 -13 -14 -31 -25 -40 -25 -24 0 -32 -69 -19 -151 5 -34 9 -88 9
-118 -1 -31 1 -119 4 -196 7 -136 8 -142 40 -195 19 -30 40 -69 49 -85 17 -35
22 -149 11 -289 l-7 -88 129 -129 c125 -125 130 -129 171 -129 l43 0 0 63 0
62 95 95 c105 105 103 97 59 198 -22 49 -30 82 -55 205 -5 26 -14 71 -19 100
-33 164 -49 284 -53 382 -2 57 -9 94 -25 129 -12 27 -22 56 -22 65 0 9 -9 35
-19 57 -35 77 12 73 107 -8 18 -15 41 -28 50 -28 10 0 28 -7 40 -16 22 -15 23
-15 16 13 -4 15 -13 43 -20 62 -8 19 -14 69 -14 117 l0 84 -178 0 -178 0 -62
-63z m98 -233 c0 -8 -7 -14 -15 -14 -8 0 -15 9 -15 20 0 13 5 18 15 14 8 -4
15 -12 15 -20z m-30 -625 c0 -5 -7 -9 -15 -9 -15 0 -20 12 -9 23 8 8 24 -1 24
-14z"/>
      </g>
    </g>
    <g class="parte" data-parte="nadadeira-tras-fim">
      <g transform="translate(0.000000,950.000000) scale(0.100000,-0.100000)" fill="#2E302C">
        <path d="M4806 4264 c-3 -9 -6 -27 -6 -40 0 -19 -5 -24 -25 -24 -21 0 -25 -5
-25 -29 0 -16 -7 -35 -17 -42 -9 -8 -23 -30 -31 -49 -8 -19 -23 -46 -34 -60
-10 -14 -64 -92 -119 -175 -55 -82 -110 -163 -122 -180 -86 -115 -107 -142
-126 -159 -21 -19 -21 -26 -21 -308 0 -241 2 -288 14 -288 12 0 80 76 142 159
11 16 36 48 54 71 34 43 54 78 142 255 75 149 120 259 138 340 10 47 52 191
74 255 25 74 38 146 30 174 -4 16 -2 26 5 26 6 0 11 19 11 45 l0 45 -39 0
c-26 0 -41 -5 -45 -16z"/>
      </g>
    </g>
    <g class="parte" data-parte="nadadeira-tras-meio">
      <g transform="translate(0.000000,950.000000) scale(0.100000,-0.100000)" fill="#2E302C">
        <path d="M4368 3585 c-39 -57 -270 -272 -345 -322 -82 -54 -150 -80 -165 -65
-14 14 -38 80 -38 105 0 14 -9 17 -45 17 l-45 0 0 -380 c0 -209 3 -380 8 -380
55 1 318 130 391 193 18 15 36 27 41 27 13 0 136 126 185 190 l45 59 -2 298
-3 298 -27 -40z"/>
      </g>
    </g>
    <g class="parte" data-parte="nadadeira-tras">
      <g transform="translate(0.000000,950.000000) scale(0.100000,-0.100000)" fill="#2E302C">
        <path d="M3722 3303 c-7 -19 -8 -95 -1 -126 5 -23 -50 -46 -137 -57 -34 -4
-66 -10 -71 -13 -11 -7 -91 15 -119 33 -17 10 -37 -7 -176 -147 l-158 -158 0
-136 0 -135 73 -22 c168 -49 410 -37 665 35 l52 14 0 307 c-1 241 -4 316 -15
347 -8 22 -15 48 -15 58 0 14 -9 17 -45 17 -34 0 -47 -4 -53 -17z"/>
      </g>
    </g>
    <g class="parte" data-parte="nadadeira-frente">
      <g transform="translate(0.000000,950.000000) scale(0.100000,-0.100000)" fill="#2E302C">
        <path d="M4397 5982 c-3 -4 1 -54 9 -112 8 -58 13 -143 12 -190 -1 -52 3 -94
10 -107 7 -12 12 -50 12 -85 0 -35 5 -69 11 -75 7 -7 12 -65 13 -149 1 -77 6
-160 10 -186 6 -35 4 -57 -8 -88 -9 -22 -16 -52 -16 -67 0 -27 -24 -72 -95
-183 -47 -72 -158 -183 -220 -220 -22 -13 -62 -42 -90 -64 -27 -21 -72 -49
-100 -61 -27 -13 -73 -36 -102 -53 -29 -17 -87 -47 -128 -66 l-77 -35 -21 23
c-12 13 -44 55 -72 94 -32 45 -57 71 -70 71 -10 1 -36 -15 -57 -36 -35 -34
-36 -37 -23 -63 7 -14 21 -32 30 -40 19 -16 98 -166 102 -195 2 -11 17 -59 33
-107 17 -48 30 -95 30 -105 0 -22 18 -79 41 -128 10 -22 18 -51 18 -65 1 -45
22 -204 31 -236 6 -17 10 -48 10 -70 1 -44 23 -94 34 -75 4 6 27 11 52 11 l44
0 -5 73 c-3 39 -8 84 -10 99 -4 24 3 33 48 66 28 21 72 50 97 65 25 15 64 42
86 60 23 17 61 46 85 62 46 32 206 189 252 248 72 92 149 222 230 389 32 64
69 131 83 147 24 29 27 30 52 17 42 -22 80 -71 84 -108 2 -27 8 -34 28 -36 33
-5 50 -20 50 -46 0 -17 8 -13 48 27 l47 48 -37 34 c-21 19 -44 48 -53 65 -9
16 -33 41 -54 54 -21 14 -48 41 -60 60 -21 34 -22 43 -17 213 4 98 9 237 12
308 4 85 1 153 -7 196 -10 59 -10 70 5 90 14 20 16 56 16 241 l0 218 -39 0
c-35 0 -39 -3 -45 -31 -3 -17 -6 -68 -6 -113 0 -90 -8 -106 -52 -106 -22 0
-33 8 -46 31 -16 30 -89 146 -125 199 -10 14 -28 42 -42 63 -25 36 -39 45 -48
29z"/>
      </g>
    </g>
    <g class="parte" data-parte="cabeca">
      <g fill="#FBF6EA" transform="translate(0.000000,950.000000) scale(0.100000,-0.100000)">
        <path data-parte="olho" d="M2928 5379 c-43 -22 -88 -99 -88 -149 0 -36 23 -96 48 -123 62 -69
155 -68 228 4 86 84 85 168 -1 248 -41 37 -49 41 -97 41 -33 -1 -67 -8 -90
-21z"/>
        <path d="M3484 5249 c-12 -19 -7 -181 5 -189 18 -10 248 -2 271 10 10 5 28 10
40 10 32 0 100 38 94 53 -5 14 -59 37 -85 37 -8 0 -48 13 -89 29 -120 47 -224
69 -236 50z"/>
      </g>
      <g transform="translate(0.000000,950.000000) scale(0.100000,-0.100000)" fill="#2E302C">
        <path d="M2920 5730 c-8 -5 -25 -10 -38 -10 -36 0 -121 -48 -185 -104 -63 -55
-110 -117 -131 -175 -55 -145 -66 -180 -66 -213 0 -20 -5 -49 -10 -64 -6 -14
-13 -66 -17 -114 -5 -83 -5 -89 16 -101 27 -17 27 -26 -1 -49 -22 -17 -22 -20
-11 -87 7 -38 10 -79 7 -91 -4 -12 2 -42 12 -67 l19 -45 215 0 215 0 80 80
c81 80 81 81 100 60 10 -11 31 -20 48 -20 32 0 32 2 11 84 l-6 26 108 0 c60 0
114 4 120 8 6 4 30 37 54 75 23 37 52 73 64 79 13 7 80 12 181 13 88 0 167 5
175 10 8 5 58 13 110 17 126 9 195 21 253 44 57 22 60 41 10 49 -21 4 -54 13
-73 21 -31 13 -99 28 -185 40 -16 3 -52 11 -80 19 -27 7 -69 19 -92 24 -187
47 -341 102 -361 128 -7 10 -17 35 -23 58 -6 22 -23 54 -38 71 -14 18 -39 50
-55 73 -31 43 -151 120 -221 141 -22 6 -54 16 -71 21 -40 12 -115 11 -134 -1z
m195 -371 c86 -80 87 -164 1 -248 -57 -56 -118 -70 -174 -42 -46 23 -67 46
-87 94 -21 52 -19 90 10 147 31 62 78 89 153 90 48 0 56 -4 97 -41z m490 -120
c22 -6 74 -24 115 -40 41 -16 81 -29 89 -29 26 0 80 -23 85 -37 6 -15 -62 -53
-94 -53 -12 0 -30 -5 -40 -10 -23 -12 -253 -20 -271 -10 -12 8 -17 170 -5 189
7 10 57 6 121 -10z"/>
      </g>
    </g>
    <g class="parte" data-parte="tronco">
      <g fill="#FBF6EA" transform="translate(0.000000,950.000000) scale(0.100000,-0.100000)">
        <path d="M2894 4567 c-6 -17 47 -104 113 -187 141 -175 163 -208 194 -285 17
-44 32 -96 34 -115 1 -19 5 -42 9 -51 12 -29 -17 -42 -66 -29 -75 20 -180 52
-257 77 -65 22 -75 23 -88 10 -22 -21 14 -90 182 -347 59 -90 71 -117 79 -175
16 -110 129 -233 296 -323 38 -21 112 -42 123 -35 5 3 37 9 71 13 87 11 142
34 137 57 -2 10 -5 43 -5 73 -1 30 -7 65 -14 77 -7 12 -12 39 -12 59 0 21 -4
51 -10 68 -9 32 -30 191 -31 236 0 14 -8 43 -18 65 -23 49 -41 106 -41 128 0
10 -13 57 -30 105 -16 48 -31 98 -34 112 -6 30 -72 154 -104 196 -103 133
-110 140 -188 183 -148 82 -324 128 -340 88z"/>
      </g>
      <g transform="translate(0.000000,950.000000) scale(0.100000,-0.100000)" fill="#2E302C">
        <path d="M2935 4820 l-100 -100 -115 0 -116 0 -44 45 c-64 65 -78 61 -76 -22
1 -38 7 -77 13 -88 13 -24 10 -262 -5 -320 -12 -46 -28 -88 -107 -275 -55
-130 -63 -153 -83 -231 -5 -20 -13 -42 -16 -48 -4 -6 -10 -63 -13 -126 l-5
-115 41 -76 c30 -55 41 -87 41 -119 0 -24 5 -56 10 -71 14 -35 0 -49 -43 -46
-61 6 -62 -2 -91 -403 -8 -104 -11 -202 -9 -217 l6 -28 90 0 c85 0 93 2 119
27 15 15 28 33 28 40 0 8 4 12 8 9 5 -3 37 24 72 59 49 49 71 65 92 65 18 0
28 -5 28 -15 0 -8 10 -20 23 -26 12 -7 37 -25 55 -40 18 -16 40 -29 48 -29 8
0 32 -9 52 -19 63 -32 136 -63 167 -72 43 -11 157 -46 178 -54 15 -6 17 1 17
81 l0 89 156 156 c153 155 156 157 207 163 114 13 174 25 212 39 l40 15 -2
156 c-2 117 -6 164 -18 186 -8 16 -15 47 -15 69 0 22 -4 50 -9 63 -5 13 -14
77 -21 143 -7 74 -18 135 -29 160 -24 50 -41 105 -41 131 -1 10 -14 57 -30
104 -17 47 -30 93 -30 103 0 10 -11 38 -25 62 -16 26 -22 46 -16 50 18 10 -88
142 -235 291 -98 99 -143 152 -147 172 -3 16 -9 41 -13 56 -6 25 -4 26 32 26
l38 0 -39 40 c-38 39 -40 40 -110 40 l-70 0 -100 -100z m140 -268 c44 -16 116
-49 159 -73 78 -43 85 -50 188 -183 32 -42 98 -166 104 -196 3 -14 18 -64 34
-112 17 -48 30 -95 30 -105 0 -22 18 -79 41 -128 10 -22 18 -51 18 -65 1 -45
22 -204 31 -236 6 -17 10 -47 10 -68 0 -20 5 -47 12 -59 7 -12 13 -47 14 -77
0 -30 3 -63 5 -73 5 -23 -50 -46 -137 -57 -34 -4 -66 -10 -71 -13 -11 -7 -85
14 -123 35 -77 41 -162 105 -203 152 -63 74 -84 112 -93 171 -8 58 -20 85 -79
175 -96 148 -133 208 -164 269 -30 56 -32 65 -18 78 13 13 23 12 88 -10 77
-25 182 -57 257 -77 49 -13 78 0 66 29 -4 9 -8 32 -9 51 -2 19 -17 71 -34 115
-31 77 -53 110 -194 285 -66 83 -119 170 -113 187 9 22 95 15 181 -15z m-381
-797 c6 -18 -7 -27 -28 -19 -16 6 -21 25 -10 37 9 8 32 -2 38 -18z m-184 -259
c0 -15 -37 -32 -47 -22 -9 8 17 36 33 36 8 0 14 -6 14 -14z"/>
      </g>
    </g>
    </g>
</g>
</svg>
